<svg width="309" height="146" viewBox="0 0 309 146" fill="none" xmlns="http://www.w3.org/2000/svg">
<g style="mix-blend-mode:overlay" opacity="0.4">
<mask id="mask0_1_2025" style="mask-type:alpha" maskUnits="userSpaceOnUse" x="0" y="0" width="309" height="146">
<path d="M0 6.10352e-05L289 1.05048e-05C300.046 8.5735e-06 309 8.95431 309 20L309 126C309 137.046 300.046 146 289 146L2.55274e-05 146L0 6.10352e-05Z" fill="url(#paint0_linear_1_2025)"/>
</mask>
<g mask="url(#mask0_1_2025)">
<path d="M130.904 141.085C111.513 134.173 101.947 114.257 109.54 96.6026" stroke="#86FAF3" stroke-width="0.876403" stroke-linecap="round"/>
<path d="M193.301 140.524C212.373 116.064 206.054 82.1597 179.187 64.7962C152.32 47.4328 115.078 53.1858 96.0063 77.6459" stroke="#86FAF3" stroke-width="0.876403" stroke-linecap="round"/>
<path d="M110.753 34.7477C65.6346 51.8012 44.2442 98.9245 62.9759 140.001C81.7076 181.077 133.468 200.551 178.586 183.497" stroke="#86FAF3" stroke-width="0.876403" stroke-linecap="round"/>
<path d="M169.486 98.8058C167.892 95.589 165.565 92.7176 162.659 90.382C159.753 88.0465 156.335 86.3003 152.631 85.2592C148.927 84.2181 145.023 83.906 141.176 84.3436" stroke="#86FAF3" stroke-width="0.876403" stroke-linecap="round"/>
<path d="M154.529 100.126C151.961 97.7476 148.47 96.3825 144.808 96.3248C141.146 96.267 137.605 97.5211 134.948 99.8171" stroke="#86FAF3" stroke-width="0.876403" stroke-linecap="round"/>
<path d="M244.845 161.783C212.897 212.161 142.14 229.421 86.8051 200.336C31.4697 171.25 12.5104 106.832 44.4583 56.454" stroke="#86FAF3" stroke-width="0.876403" stroke-linecap="round"/>
<path d="M263.103 171.379C300.872 111.821 278.458 35.665 213.04 1.27928C147.621 -33.1065 63.9703 -12.7004 26.2008 46.8574" stroke="#86FAF3" stroke-width="0.876403" stroke-linecap="round"/>
<path d="M212.413 72.7282C190.337 38.6577 142.104 27.3305 104.681 47.4282C67.2573 67.5259 54.8155 111.438 76.8909 145.509" stroke="#86FAF3" stroke-width="0.876403" stroke-linecap="round"/>
<path d="M201.525 196.894C148.277 225.49 79.6486 209.373 48.2386 160.896C16.8286 112.419 34.5315 49.9387 87.779 21.3427" stroke="#7B8085" stroke-opacity="0.5" stroke-width="0.876403" stroke-linecap="round"/>
<path d="M176.913 158.909C146.708 175.13 107.778 165.988 89.9611 138.489C72.1437 110.991 82.1857 75.5485 112.39 59.3274" stroke="#86A0FA" stroke-width="0.876403" stroke-linecap="round"/>
<path d="M254.901 176.938C213.76 232.373 131.047 246.947 70.1578 209.491C9.26865 172.035 -6.73972 96.7324 34.4021 41.2982" stroke="#86A0FA" stroke-width="0.876403" stroke-linecap="round"/>
<path d="M170.051 148.319C146.271 161.09 115.621 153.892 101.593 132.242C87.5656 110.592 95.4718 82.6885 119.252 69.9175" stroke="#86A0FA" stroke-width="0.876403" stroke-linecap="round"/>
<ellipse cx="144.652" cy="109.118" rx="144.146" ry="131.232" stroke="#86FAF3" stroke-width="0.876403" stroke-linecap="round"/>
<path d="M267.887 109.118C267.887 47.155 212.713 -3.07614 144.652 -3.07614C76.5909 -3.07614 21.4167 47.155 21.4167 109.118" stroke="#86A0FA" stroke-width="0.876403" stroke-linecap="round"/>
<path d="M144.652 197.438C91.074 197.438 47.6406 157.896 47.6406 109.118C47.6406 60.3405 91.074 20.7983 144.652 20.7983" stroke="#7B8085" stroke-opacity="0.5" stroke-width="0.876403" stroke-linecap="round"/>
<path d="M144.652 243.159C63.3386 243.159 -2.57886 183.147 -2.57886 109.118C-2.57886 35.0899 63.3386 -24.9221 144.652 -24.9221" stroke="#86A0FA" stroke-width="0.876403" stroke-linecap="round"/>
<path d="M276.114 109.118C276.114 43.0184 217.256 -10.5662 144.652 -10.5662C72.0473 -10.5662 13.1897 43.0184 13.1897 109.118" stroke="#7B8085" stroke-opacity="0.5" stroke-width="0.876403" stroke-linecap="round"/>
<path d="M276.114 109.118C276.114 43.0184 217.256 -10.5662 144.652 -10.5662C72.0473 -10.5662 13.1897 43.0184 13.1897 109.118" stroke="#7B8085" stroke-opacity="0.5" stroke-width="0.876403" stroke-linecap="round"/>
<path d="M60.6693 73.4331C82.2593 31.2452 137.327 12.9794 183.666 32.6352C230.006 52.2909 250.069 102.425 228.479 144.613" stroke="#86FAF3" stroke-width="0.876403" stroke-linecap="round"/>
<path d="M167.919 145.751C190.094 134.095 197.692 108.28 184.889 88.0916C172.086 67.9032 143.731 60.9861 121.556 72.6419" stroke="#86FAF3" stroke-width="0.876403" stroke-linecap="round"/>
<path d="M50.6093 25.0806C101.623 -22.2354 185.11 -22.9424 237.082 23.5015" stroke="#7B8085" stroke-opacity="0.5" stroke-width="0.876403" stroke-linecap="round"/>
<path d="M167.99 155.332C139.967 167.061 106.807 155.888 93.9238 130.376C81.0406 104.864 93.3136 74.674 121.336 62.9451" stroke="#7B8085" stroke-opacity="0.5" stroke-width="0.876403" stroke-linecap="round"/>
<path d="M129.976 80.1474C147.547 72.7929 168.34 79.7991 176.419 95.7963" stroke="#7B8085" stroke-opacity="0.5" stroke-width="0.876403" stroke-linecap="round"/>
<path d="M142.938 114.451C139.675 113.655 137.738 110.602 138.612 107.631C139.487 104.661 142.841 102.898 146.104 103.694" stroke="#86A0FA" stroke-width="0.876403" stroke-linecap="round"/>
<path d="M76.0317 80.605C93.3484 46.1112 138.101 30.9288 175.989 46.6941C213.877 62.4594 230.554 103.202 213.237 137.696" stroke="#86A0FA" stroke-width="0.876403" stroke-linecap="round"/>
<path d="M115.223 16.357C171.495 1.59212 230.26 31.1537 246.478 82.3846C262.695 133.615 230.225 187.116 173.952 201.88" stroke="#86A0FA" stroke-width="0.876403" stroke-linecap="round"/>
<path d="M140.293 95.3938C131.897 97.5968 127.053 105.579 129.472 113.223C131.892 120.867 140.66 125.277 149.056 123.074" stroke="#86A0FA" stroke-width="0.876403" stroke-linecap="round"/>
<path d="M144.606 184.508C98.8746 184.501 61.8084 150.744 61.8161 109.11C61.8238 67.4756 98.9024 33.7302 144.634 33.7372" stroke="#86A0FA" stroke-width="0.876403" stroke-linecap="round"/>
<path d="M236.349 89.5644C224.599 44.0823 174.021 16.0023 123.379 26.846" stroke="#354389" stroke-width="0.876403" stroke-linecap="round"/>
<path d="M173.618 109.118C173.618 103.667 171.763 98.3504 168.307 93.8989C164.852 89.4473 159.966 86.08 154.322 84.2602C148.678 82.4404 142.554 82.2575 136.791 83.7368C131.029 85.216 125.911 88.2847 122.143 92.5205" stroke="#86A0FA" stroke-width="0.876403" stroke-linecap="round"/>
</g>
</g>
<defs>
<linearGradient id="paint0_linear_1_2025" x1="49.3813" y1="33.3715" x2="269.451" y2="106.803" gradientUnits="userSpaceOnUse">
<stop stop-color="#548AD8"/>
<stop offset="1" stop-color="#8A4BD3"/>
</linearGradient>
</defs>
</svg>
